<?xml version="1.0" encoding="UTF-8"?>
<svg width="50px" height="50px" viewBox="0 0 50 50" version="1.1" xmlns="http://www.w3.org/2000/svg" xmlns:xlink="http://www.w3.org/1999/xlink">
    <title>宽带</title>
    <g id="页面-1" stroke="none" stroke-width="1" fill="none" fill-rule="evenodd">
        <g id="记录-网络类型" transform="translate(-36.000000, -228.000000)">
            <g id="数据条" transform="translate(30.000000, 220.000000)">
                <g id="宽带" transform="translate(7.000000, 9.000000)">
                    <circle id="椭圆形" stroke="#E6E6E7" stroke-width="2" cx="24" cy="24" r="24"></circle>
                    <g transform="translate(12.000000, 11.000000)" fill="#E6E6E7" fill-rule="nonzero" id="形状">
                        <path d="M3.89160741,17.5122333 L20.4309389,17.5122333 C22.0428939,17.5122333 23.3496445,18.8189839 23.3496445,20.4309389 L23.3496445,23.0253438 C23.3496445,24.6372988 22.0428939,25.9440494 20.4309389,25.9440494 L2.91870556,25.9440494 C1.30675056,25.9440494 0,24.6372988 0,23.0253438 L0,20.4309389 C0,19.1601305 0.812195921,18.0789764 1.94580371,17.6783215 L1.94580371,14.9178284 L3.89160741,14.9178284 L3.89160741,17.5122333 Z M2.91870556,19.4580371 C2.38139736,19.4580371 1.94580371,19.8936307 1.94580371,20.4309389 L1.94580371,23.0253438 C1.94580371,23.562652 2.38139736,23.9982457 2.91870556,23.9982457 L20.4309389,23.9982457 C20.9682471,23.9982457 21.4038408,23.562652 21.4038408,23.0253438 L21.4038408,20.4309389 C21.4038408,19.8936307 20.9682471,19.4580371 20.4309389,19.4580371 L2.91870556,19.4580371 Z M17.5122333,20.7552395 L19.4580371,20.7552395 L19.4580371,22.7010432 L17.5122333,22.7010432 L17.5122333,20.7552395 Z M0.203550711,5.20526057 C2.99731007,2.0147689 7.10079996,0 11.6748222,0 C16.2488445,0 20.352304,2.0147689 23.1460938,5.20526057 L21.7018993,6.50973054 C19.2643385,3.71311284 15.675959,1.94580371 11.6748222,1.94580371 C7.67365503,1.94580371 4.08530595,3.71311284 1.64774513,6.50973054 L0.203550711,5.20523016 L0.203550711,5.20526057 Z M4.53637725,9.11882251 C6.2612369,7.10998316 8.81942599,5.83741112 11.6748222,5.83741112 C14.5302185,5.83741112 17.088438,7.10995275 18.8132368,9.11882251 L17.3686471,10.423627 C16.0004421,8.80847914 13.9573634,7.78321482 11.6748222,7.78321482 C9.39228106,7.78321482 7.34920238,8.80847914 5.98099738,10.423627 L4.53637725,9.11882251 L4.53637725,9.11882251 Z M8.87212294,13.0349691 C9.52537659,12.2065962 10.5379912,11.6748222 11.6748222,11.6748222 C12.8116533,11.6748222 13.8242679,12.2065962 14.4775215,13.0349691 L13.0262725,14.3457639 C12.7357855,13.9087107 12.2389502,13.6206259 11.6748222,13.6206259 C11.1106942,13.6206259 10.613859,13.9087107 10.323372,14.3457639 L8.87212294,13.0349691 Z"></path>
                    </g>
                </g>
            </g>
        </g>
    </g>
</svg>