<?xml version="1.0" encoding="UTF-8"?>
<svg width="22px" height="21px" viewBox="0 0 22 21" version="1.1" xmlns="http://www.w3.org/2000/svg" xmlns:xlink="http://www.w3.org/1999/xlink">
    <!-- Generator: Sketch 55.1 (78136) - https://sketchapp.com -->
    <title>曲线 (1)</title>
    <desc>Created with Sketch.</desc>
    <g id="页面1" stroke="none" stroke-width="1" fill="none" fill-rule="evenodd">
        <g id="改版测速结束备份-5" transform="translate(-1440.000000, -297.000000)" fill="#00D2FA" fill-rule="nonzero">
            <g id="曲线-(1)" transform="translate(1439.878445, 296.414691)">
                <path d="M21.0435401,4.50414001 C18.4279648,4.63452883 18.4908067,9.71440779 17.8573391,11.5335134 C17.0398362,13.8836275 15.0064452,15.8911298 12.2696979,15.0807168 C9.93829672,14.3912394 8.4057715,9.88664822 5.5641803,11.5963768 C3.6170921,12.7678567 2.64118471,15.3274866 2.16831307,17.460909 C2.16362947,17.4819637 2.15430524,17.5005907 2.14977203,17.5193466 L2.14977203,19.7205308 L20.3170236,19.7205308 C20.7176432,19.7205308 21.043626,20.0464921 21.043626,20.4471332 C21.043626,20.8476024 20.7176432,21.1735637 20.3170236,21.1735637 L1.42295478,21.1735637 C1.02233517,21.1735637 0.696223466,20.8475809 0.696223466,20.4471117 L0.696223466,1.55312876 C0.696223466,1.15250915 1.02227072,0.826397446 1.42295478,0.826397446 C1.82350993,0.826397446 2.1496861,1.1524447 2.1496861,1.55312876 L2.1496861,13.3199198 C2.67373358,12.3673015 3.32337887,11.4960446 4.13394231,10.8184481 C6.6006737,8.76181098 9.16732903,10.2175295 10.8793134,12.3137624 C11.9622991,13.6414124 14.0817781,14.5148177 15.472184,12.9588959 C16.5483376,11.7570371 16.7952578,9.99387686 17.109639,8.46839853 C17.5871084,6.15083333 18.1716559,3.19294707 21.0412842,3.05074183 C21.9798517,3.00418514 21.9752326,4.45749737 21.0435401,4.50414001 L21.0435401,4.50414001 Z" id="路径"></path>
            </g>
        </g>
    </g>
</svg>