<?xml version="1.0" encoding="UTF-8"?>
<svg width="19px" height="20px" viewBox="0 0 19 20" version="1.1" xmlns="http://www.w3.org/2000/svg" xmlns:xlink="http://www.w3.org/1999/xlink">
    <title>详情/svg</title>
    <g id="页面-1" stroke="none" stroke-width="1" fill="none" fill-rule="evenodd">
        <g id="个人中心-测速记录" transform="translate(-1434.000000, -657.000000)" fill="#00D2FA" fill-rule="nonzero">
            <g id="编组-5" transform="translate(330.000000, 581.000000)">
                <g id="编组-12" transform="translate(1104.000000, 76.000000)">
                    <g id="详情">
                        <path d="M18.7126641,15.6081564 L16.1028603,13.8478963 C16.2548285,13.4008368 16.341198,12.9208962 16.341198,12.419397 C16.341198,10.0474937 14.4877849,8.1174653 12.2099837,8.1174653 C9.93217491,8.1174653 8.07878869,10.0475056 8.07878869,12.419397 C8.07878869,14.79134 9.9321634,16.7213286 12.2099837,16.7213286 C13.5550527,16.7213286 14.7480977,16.0450691 15.5033067,15.0066282 L18.0267643,16.7098871 C18.1325914,16.7808272 18.2517692,16.8150271 18.3685142,16.8150271 C18.5752601,16.8150271 18.7771371,16.7098871 18.8975135,16.5161275 C19.0884544,16.2109076 19.0045579,15.8044473 18.7126591,15.6081483 L18.7126641,15.6081564 Z M12.2099857,15.4093156 C10.6265981,15.4093156 9.33868731,14.0681766 9.33868731,12.4193672 C9.33868731,10.7705677 10.6266001,9.42941874 12.2099857,9.42941874 C13.7933924,9.42941874 15.0813041,10.7705578 15.0813041,12.4193672 C15.0825205,14.0681865 13.7933905,15.4093156 12.2099857,15.4093156 L12.2099857,15.4093156 Z M14.2822975,17.4823929 L14.2810802,17.4823929 C14.2810802,18.145952 13.7630157,18.686732 13.1257545,18.686732 L2.41645025,18.686732 C1.77920821,18.686732 1.26112449,18.1472724 1.26112449,17.4823929 L1.26112449,2.51624888 C1.26112449,1.85268981 1.77920821,1.31318854 2.41645025,1.31318854 L13.1257545,1.31318854 C13.7630349,1.31318854 14.2810802,1.85268782 14.2810802,2.51624888 L14.2810802,7.71479773 C14.7432067,7.93643815 15.1676159,8.22893781 15.5409769,8.57973725 L15.5409769,2.51626278 C15.5409769,1.12960381 14.4574331,0 13.1245267,0 L2.41646941,0 C1.08479073,0 0,1.12833895 0,2.5162628 L0,17.4836975 C0,18.8703366 1.08362051,20 2.41646941,20 L13.1257736,20 C14.4574523,20 15.5422239,18.8716392 15.5422239,17.4836975 L15.5422239,16.2590567 C15.1688628,16.6098562 14.7444536,16.9023558 14.2823272,17.1239962 L14.2823272,17.4823969 L14.2822975,17.4823929 Z M11.4000644,7.31206066 L3.33217893,7.31206066 C2.98438221,7.31206066 2.70222098,7.60590066 2.70222098,7.96809993 C2.70222098,8.33025948 2.98438221,8.62405977 3.33217893,8.62405977 L8.83398046,8.62405977 C9.53328596,7.94905917 10.4186226,7.48050054 11.4000644,7.31206066 L11.4000644,7.31206066 Z M12.8399455,4.66025488 C12.8399455,4.29809532 12.5578054,4.00425532 12.2099876,4.00425532 L3.33218085,4.00425532 C2.98438413,4.00425532 2.7022229,4.29809532 2.7022229,4.66025488 C2.7022229,5.02245415 2.98438413,5.31625443 3.33218085,5.31625443 L12.2111962,5.31625443 C12.5590332,5.31625443 12.8399455,5.02245415 12.8399455,4.66025488 L12.8399455,4.66025488 Z M2.70103351,11.2758497 C2.70103351,11.6380489 2.98317363,11.9318095 3.33099145,11.9318095 L7.26152386,11.9318095 C7.30287303,11.4746487 7.4013771,11.0339691 7.54975101,10.6198501 L3.33219044,10.6198501 C2.98317555,10.6198501 2.70103351,10.9136504 2.70103351,11.2758497 L2.70103351,11.2758497 Z" id="形状"></path>
                    </g>
                </g>
            </g>
        </g>
    </g>
</svg>